<svg version="1.0" xmlns="http://www.w3.org/2000/svg"
 width="35px" height="35px" viewBox="0 0 375.000000 414.000000"
 preserveAspectRatio="xMidYMid meet">

<g transform="translate(0.000000,414.000000) scale(0.100000,-0.100000)"
fill="#fff" stroke="none">
<path d="M1997 4129 c-161 -23 -195 -139 -78 -262 l36 -39 -39 16 c-22 9 -46
22 -54 29 -20 16 -52 86 -52 115 0 12 -4 22 -9 22 -17 0 -73 -53 -82 -78 -13
-35 5 -85 42 -117 17 -14 29 -28 27 -33 -2 -4 -22 -39 -46 -78 -105 -176 -182
-531 -157 -729 6 -50 10 -58 44 -80 75 -50 147 -69 271 -71 110 -2 115 -3 114
-23 -2 -70 -5 -79 -24 -84 -17 -4 -20 -14 -20 -70 l0 -64 -63 -6 c-103 -10
-312 -66 -362 -98 -25 -16 -58 -49 -74 -74 -16 -26 -55 -64 -88 -86 -76 -53
-233 -208 -287 -284 -24 -33 -56 -88 -71 -123 -27 -60 -27 -65 -13 -96 29 -59
164 -230 239 -301 41 -39 95 -81 122 -95 26 -14 47 -27 47 -31 0 -3 -6 -14
-14 -25 -14 -19 -16 -19 -103 5 -357 96 -563 106 -617 30 -39 -56 -9 -338 83
-799 27 -134 48 -247 45 -251 -6 -10 -176 -83 -309 -134 -126 -48 -175 -77
-175 -105 0 -36 53 -42 443 -43 327 -2 379 0 427 15 31 10 66 28 79 42 28 29
27 40 -17 206 -37 140 -61 324 -65 485 l-2 119 85 14 c49 8 170 15 285 15 163
2 215 -1 280 -16 207 -48 289 -124 414 -382 61 -125 61 -120 -6 -138 -235 -66
-498 -68 -747 -6 -43 11 -80 18 -83 15 -6 -6 37 -344 47 -372 6 -15 23 -23 72
-32 412 -75 855 -3 1223 199 266 147 452 311 623 549 197 276 317 603 344 942
40 504 -128 995 -475 1388 -81 92 -183 185 -190 173 -3 -5 -8 -24 -12 -43 -12
-56 -69 -173 -115 -234 l-42 -55 74 -84 c89 -99 152 -188 204 -282 21 -38 63
-104 92 -145 112 -155 275 -529 313 -716 11 -54 10 -68 -4 -105 -47 -123 -181
-285 -310 -373 -45 -31 -65 -54 -96 -110 -49 -89 -115 -180 -203 -277 -68 -76
-169 -164 -188 -164 -6 0 -46 83 -91 185 -44 102 -82 190 -85 195 -2 6 4 25
13 43 16 29 34 40 143 83 289 115 533 289 612 436 l28 51 -26 58 c-14 32 -47
122 -74 200 -70 206 -136 326 -240 439 -25 28 -63 73 -84 102 -48 67 -126 138
-191 171 -44 24 -61 27 -147 27 l-97 0 -3 30 c-3 25 -9 31 -40 39 -21 5 -38
15 -38 21 0 6 7 65 15 130 8 66 15 123 15 127 0 4 21 19 48 32 93 48 151 137
152 234 0 43 -5 57 -25 77 -13 14 -31 25 -40 25 -29 0 -90 -31 -122 -62 -43
-41 -43 -20 -1 28 62 70 145 84 200 35 32 -29 33 -32 33 -108 -1 -93 -31 -165
-96 -233 -22 -23 -38 -44 -36 -46 3 -3 22 -2 42 2 54 10 147 100 184 178 45
95 56 157 55 296 -3 273 -87 430 -279 521 -175 84 -461 139 -608 118z m817
-2014 c37 -80 127 -223 184 -293 19 -23 33 -44 31 -45 -57 -39 -104 -80 -194
-172 -82 -84 -129 -122 -185 -153 l-74 -41 -41 37 c-23 20 -50 42 -61 48 -16
10 -19 22 -17 85 4 164 120 412 259 554 30 30 56 55 59 55 2 0 20 -34 39 -75z
m-1246 -82 c-1 -38 0 -106 1 -153 3 -81 -8 -167 -30 -254 l-10 -38 -29 27
c-16 15 -52 72 -81 127 -29 55 -63 107 -76 115 -13 8 -23 18 -23 22 0 4 18 18
41 30 59 33 150 112 179 154 14 20 26 37 27 37 1 0 2 -30 1 -67z"/>
<path d="M1405 3675 c-345 -91 -638 -264 -885 -522 -284 -297 -456 -662 -506
-1078 -56 -456 77 -946 356 -1317 97 -128 189 -229 190 -207 0 9 -16 106 -36
215 -59 326 -74 433 -78 549 -3 62 -13 146 -24 190 -41 164 -54 317 -41 472
29 361 166 666 414 922 157 162 305 263 515 352 l85 36 17 91 c14 76 61 231
93 305 9 21 10 21 -100 -8z"/>
</g>
</svg>
